<svg width="383" height="402" viewBox="0 0 383 402" fill="none" xmlns="http://www.w3.org/2000/svg">
<path d="M237.225 292.364L325.703 243.636V348.143C325.703 372.576 305.897 392.383 281.464 392.383C257.031 392.383 237.225 372.576 237.225 348.143V292.364Z" fill="#045468"/>
<path d="M237.225 44.2393C237.225 19.8066 257.031 0 281.464 0C305.897 0 325.703 19.8066 325.703 44.2392V150.029L237.225 100.019V44.2393Z" fill="#045468"/>
<rect x="42.9569" width="88.4785" height="348.144" rx="44.2392" fill="#045468"/>
<rect x="126.306" y="154.517" width="116.048" height="83.3493" fill="#045468"/>
<path d="M62.8325 199.076L135.603 154.517H261.589V237.866H42.9569L62.8325 199.076Z" fill="#11809C"/>
<path d="M382.124 196.192L237.866 279.479V112.904L382.124 196.192Z" fill="#11809C"/>
<path d="M57.9034 381.003C34.449 366.109 16.7213 344.433 7.37191 319.214C-1.97751 293.996 -2.44616 266.592 6.03605 241.101C14.5183 215.61 31.4955 193.402 54.4283 177.798C77.3612 162.195 105.017 154.035 133.26 154.539L131.598 237.901C122.386 237.737 113.365 240.399 105.884 245.489C98.4033 250.578 92.8654 257.823 90.0985 266.138C87.3316 274.453 87.4845 283.392 90.5342 291.618C93.584 299.844 99.3667 306.915 107.017 311.773L57.9034 381.003Z" fill="#11809C"/>
<path d="M124.703 366.737C103.023 366.737 82.2303 359.948 66.8999 347.864C51.5695 335.78 42.9569 319.391 42.9569 302.301C42.9569 285.212 51.5695 268.823 66.8999 256.739C82.2303 244.655 103.023 237.866 124.703 237.866V302.301V366.737Z" fill="#045468"/>
<path d="M42.9569 310.316H131.435V348.144C131.435 372.576 111.629 392.383 87.1962 392.383C62.7635 392.383 42.9569 372.576 42.9569 348.144V310.316Z" fill="#045468"/>
</svg>
